HIERARCHY
ROOT Hips
{
	OFFSET 0.000000 0.000000 0.000000 
	CHANNELS 6 Xposition Yposition Zposition Zrotation Yrotation Xrotation
	JOINT LeftUpLeg
	{
		OFFSET 1.363060 -1.794630 0.839290 
		CHANNELS 3 Zrotation Yrotation Xrotation
		JOINT LeftLeg
		{
			OFFSET 2.448110 -6.726130 0.000000 
			CHANNELS 3 Zrotation Yrotation Xrotation
			JOINT LeftFoot
			{
				OFFSET 2.562200 -7.039590 0.000000 
				CHANNELS 3 Zrotation Yrotation Xrotation
				JOINT LeftToeBase
				{
					OFFSET 0.157640 -0.433110 2.322550 
					CHANNELS 3 Zrotation Yrotation Xrotation
					End Site
					{
						OFFSET 0.000000 0.000000 0.000000 
					}
				}
			}
		}
	}
	JOINT RightUpLeg
	{
		OFFSET -1.305520 -1.794630 0.839290 
		CHANNELS 3 Zrotation Yrotation Xrotation
		JOINT RightLeg
		{
			OFFSET -2.542530 -6.985550 0.000000 
			CHANNELS 3 Zrotation Yrotation Xrotation
			JOINT RightFoot
			{
				OFFSET -2.568260 -7.056230 0.000000 
				CHANNELS 3 Zrotation Yrotation Xrotation
				JOINT RightToeBase
				{
					OFFSET -0.164730 -0.452590 2.363150 
					CHANNELS 3 Zrotation Yrotation Xrotation
					End Site
					{
						OFFSET 0.000000 0.000000 0.000000 
					}
				}
			}
		}
	}
	JOINT Spine
	{
		OFFSET 0.028270 2.035590 -0.193380 
		CHANNELS 3 Zrotation Yrotation Xrotation
		JOINT Spine1
		{
			OFFSET 0.056720 2.048850 -0.042750 
			CHANNELS 3 Zrotation Yrotation Xrotation
			JOINT Neck1
			{
				OFFSET -0.054170 1.746240 0.172020 
				CHANNELS 3 Zrotation Yrotation Xrotation
				JOINT Head
				{
					OFFSET 0.104070 1.761360 -0.123970 
					CHANNELS 3 Zrotation Yrotation Xrotation
					End Site
					{
						OFFSET 0.000000 0.000000 0.000000 
					}
				}
			}
			JOINT LeftArm
			{
				OFFSET 3.362410 1.200890 -0.311210 
				CHANNELS 3 Zrotation Yrotation Xrotation
				JOINT LeftForeArm
				{
					OFFSET 4.983000 -0.000000 -0.000000 
					CHANNELS 3 Zrotation Yrotation Xrotation
					JOINT LeftHand
					{
						OFFSET 3.483560 -0.000000 -0.000000 
						CHANNELS 3 Zrotation Yrotation Xrotation
						JOINT LeftHandIndex1
						{
							OFFSET 0.715260 -0.000000 -0.000000 
							CHANNELS 3 Zrotation Yrotation Xrotation
							End Site
							{
								OFFSET 0.000000 0.000000 0.000000 
							}
						}
					}
				}
			}
			JOINT RightArm
			{
				OFFSET -3.136600 1.374050 -0.404650 
				CHANNELS 3 Zrotation Yrotation Xrotation
				JOINT RightForeArm
				{
					OFFSET -5.241900 -0.000000 -0.000000 
					CHANNELS 3 Zrotation Yrotation Xrotation
					JOINT RightHand
					{
						OFFSET -3.444170 -0.000000 -0.000000 
						CHANNELS 3 Zrotation Yrotation Xrotation
						JOINT RightHandIndex1
						{
							OFFSET -0.622530 -0.000000 -0.000000 
							CHANNELS 3 Zrotation Yrotation Xrotation
							End Site
							{
								OFFSET 0.000000 0.000000 0.000000 
							}
						}
					}
				}
			}
		}
	}
}
MOTION
Frames: 13
Frame Time: 0.041667
-1.016204 17.926404 -7.700285 -1.246732 -5.857106 10.608118 -7.555736 -6.043313 -13.694746 0.187492 7.540436 22.307464 0.071613 1.039161 -5.582898 0.325800 -3.668800 -10.146800 21.970299 4.237515 -16.940352 -2.079576 -9.248450 25.935015 -0.085510 -2.483302 -10.629479 -0.844900 -5.863000 16.387500 8.387202 -2.958382 0.128567 7.026273 -1.456246 1.668605 2.246409 -11.328111 14.903729 -1.207700 -5.483600 9.333800 -97.334333 -1.355379 -4.239672 9.403830 -16.852255 -0.649481 1.283372 0.619878 8.221901 -7.125000 0.000000 0.000000 81.000818 1.056871 29.218074 -16.663553 28.280030 -3.654109 0.010754 0.188787 -9.074607 7.125000 0.000000 0.000000 
-1.020781 17.921927 -7.694116 -1.302963 -5.667545 10.570618 -7.478466 -6.099045 -13.623521 0.175248 7.509269 22.220611 0.063741 1.070335 -5.520729 0.382300 -3.971000 -10.995100 22.072718 4.207047 -16.907911 -2.082858 -9.261623 25.968429 -0.041686 -2.793796 -10.640791 -0.683700 -5.286600 14.727900 8.499675 -2.995453 0.197569 7.065462 -1.473714 1.674508 2.264827 -11.317351 15.014322 -1.205600 -5.473000 9.398600 -97.332171 -1.551249 -3.768576 9.531279 -17.082343 -0.678608 1.279395 0.643011 7.963165 -7.125000 0.000000 0.000000 80.931322 1.037971 29.312368 -16.581909 28.167780 -3.616252 0.019387 0.192946 -8.888581 7.125000 0.000000 0.000000 
-1.022771 17.919041 -7.686753 -1.278185 -5.511348 10.563445 -7.487419 -6.212792 -13.560306 0.162548 7.483069 22.149942 0.046377 1.153884 -5.469407 0.432700 -4.221200 -11.699900 22.070642 4.110215 -16.953845 -2.086793 -9.273003 26.002924 -0.019344 -2.956267 -10.664231 -0.587400 -4.907200 13.644000 8.516634 -2.922325 0.382116 7.044294 -1.436780 1.744950 2.443281 -11.435419 15.164453 -1.155200 -5.514300 9.526800 -97.324743 -1.889089 -2.945080 9.648000 -17.297740 -0.711342 1.273723 0.659270 7.546309 -7.125000 0.000000 0.000000 80.847307 1.109256 29.233570 -16.537204 28.105904 -3.598272 0.022638 0.191650 -8.756105 7.125000 0.000000 0.000000 
-1.025756 17.919738 -7.679291 -1.221536 -5.361583 10.594173 -7.511090 -6.391030 -13.512669 0.148476 7.459280 22.084094 0.044690 1.185627 -5.577443 0.461900 -4.359400 -12.090000 22.042646 3.909589 -17.076270 -2.088930 -9.278068 26.020615 -0.028248 -2.912281 -10.713800 -0.601900 -4.966300 13.812500 8.514234 -2.861761 0.541096 7.041295 -1.407994 1.890821 2.570908 -11.518576 15.110278 -1.111800 -5.550200 9.549700 -97.299340 -2.178847 -2.181135 9.768263 -17.516716 -0.751239 1.263315 0.670299 7.065388 -7.125000 0.000000 0.000000 80.776866 1.193512 29.167808 -16.457085 27.988115 -3.563506 0.023521 0.191453 -8.619840 7.125000 0.000000 0.000000 
-1.030433 17.920235 -7.673520 -1.248498 -5.197967 10.631024 -7.444284 -6.511472 -13.503012 0.137974 7.437466 22.021953 0.058276 1.136843 -5.691224 0.479300 -4.439600 -12.316900 22.112401 3.760040 -17.170841 -2.088627 -9.275867 26.018274 -0.029652 -2.919923 -10.763558 -0.621300 -5.044100 14.034400 8.610861 -2.860986 0.689938 7.076364 -1.407931 2.055242 2.570021 -11.538773 15.012096 -1.112100 -5.565300 9.536300 -97.310210 -2.505047 -1.814489 9.857235 -17.683005 -0.778422 1.256190 0.680809 6.887086 -7.125000 0.000000 0.000000 80.694246 1.293450 29.174981 -16.352021 27.832874 -3.516577 0.021714 0.193554 -8.538810 7.125000 0.000000 0.000000 
-1.034015 17.921628 -7.665659 -1.205893 -5.048795 10.623465 -7.468626 -6.539267 -13.483347 0.132012 7.422533 21.983597 0.071310 1.058512 -5.682721 0.491300 -4.494000 -12.470700 22.084595 3.760614 -17.140764 -2.083517 -9.271393 25.999188 -0.011490 -3.065120 -10.821499 -0.624800 -5.058100 14.074300 8.639872 -2.846830 0.794286 7.112837 -1.401079 2.160735 2.599902 -11.573045 14.959546 -1.103300 -5.582000 9.534000 -97.296525 -2.731139 -1.276455 9.984410 -17.908171 -0.811244 1.251507 0.698378 6.642545 -7.125000 0.000000 0.000000 80.602506 1.276715 29.184900 -16.282810 27.724109 -3.485722 0.017446 0.193567 -8.565045 7.125000 0.000000 0.000000 
-1.037398 17.922623 -7.658296 -1.206172 -4.885707 10.591336 -7.446663 -6.569673 -13.442190 0.129691 7.412946 21.959431 0.085745 0.964891 -5.638602 0.503500 -4.548800 -12.626100 22.110493 3.768652 -17.055395 -2.075067 -9.263799 25.963257 0.019008 -3.285396 -10.851173 -0.596500 -4.944300 13.749700 8.662139 -2.835003 0.768148 7.106405 -1.394745 2.144654 2.594023 -11.582092 14.889385 -1.099600 -5.590900 9.497200 -97.229075 -2.775839 -0.506635 10.174234 -18.237445 -0.863942 1.244045 0.720196 6.089636 -7.125000 0.000000 0.000000 80.547083 1.175862 29.187412 -16.159852 27.539892 -3.431972 0.015618 0.195376 -8.527795 7.125000 0.000000 0.000000 
-1.042572 17.920832 -7.654614 -1.288754 -4.700919 10.574731 -7.322977 -6.582632 -13.423903 0.128927 7.399282 21.921826 0.103840 0.818796 -5.447330 0.472700 -4.409300 -12.231100 22.247197 3.689550 -17.017663 -2.065061 -9.248062 25.905898 0.057237 -3.519350 -10.768542 -0.485300 -4.467200 12.394900 8.709424 -2.821333 0.738496 7.068483 -1.386043 2.102881 2.541985 -11.562016 14.810609 -1.114800 -5.588800 9.459700 -97.106167 -2.852184 0.364792 10.363950 -18.566627 -0.918049 1.236889 0.742023 5.441815 -7.125000 0.000000 0.000000 80.562120 1.135347 29.019091 -15.981013 27.282417 -3.354857 0.017703 0.199532 -8.329592 7.125000 0.000000 0.000000 
-1.047646 17.920534 -7.649838 -1.322031 -4.479652 10.612172 -7.235489 -6.585702 -13.483350 0.127827 7.389400 21.888205 0.128752 0.626513 -5.225219 0.435200 -4.233300 -11.733900 22.335202 3.569406 -17.045243 -2.053301 -9.224938 25.833176 0.079712 -3.650321 -10.702853 -0.446600 -4.287800 11.887900 8.674099 -2.821913 0.692885 7.002554 -1.386883 2.111517 2.557198 -11.568989 14.758670 -1.115600 -5.589500 9.437500 -96.925174 -2.927571 1.281718 10.572914 -18.924217 -0.979093 1.228902 0.764802 4.781653 -7.125000 0.000000 0.000000 80.631685 1.069873 28.752455 -15.833199 27.064718 -3.289804 0.020264 0.204145 -8.098355 7.125000 0.000000 0.000000 
-1.051029 17.924215 -7.642873 -1.283851 -4.247843 10.658603 -7.224850 -6.544384 -13.574853 0.127097 7.384395 21.867022 0.172851 0.345722 -5.106341 0.419700 -4.158200 -11.522300 22.332077 3.525872 -17.045679 -2.040417 -9.202804 25.762913 0.085541 -3.723401 -10.804261 -0.544900 -4.729400 13.138300 8.624362 -2.843168 0.594033 6.964191 -1.399111 2.100891 2.549014 -11.596819 14.791802 -1.127000 -5.599200 9.445400 -96.786295 -2.953154 2.055160 10.796948 -19.313576 -1.054963 1.217822 0.774777 4.223772 -7.125000 0.000000 0.000000 80.662430 0.988604 28.551867 -15.692666 26.853193 -3.228167 0.018546 0.208811 -7.925824 7.125000 0.000000 0.000000 
-1.055208 17.926703 -7.636505 -1.285792 -4.082144 10.682652 -7.192518 -6.363911 -13.681136 0.132032 7.383359 21.861559 0.232745 -0.027615 -4.988996 0.413100 -4.125700 -11.430600 22.357104 3.583738 -16.988203 -2.027410 -9.180319 25.690885 0.098484 -3.843590 -10.905035 -0.611900 -5.006600 13.927300 8.683731 -2.846612 0.518680 6.985261 -1.400525 2.061250 2.469634 -11.577095 14.856867 -1.157400 -5.594200 9.477000 -96.706785 -2.970735 2.883695 11.047674 -19.748387 -1.140276 1.205581 0.787165 3.589148 -7.125000 0.000000 0.000000 80.646105 1.010545 28.259271 -15.474896 26.537271 -3.137548 0.018189 0.213365 -7.666013 7.125000 0.000000 0.000000 
-1.061079 17.927101 -7.631829 -1.357240 -3.962707 10.695404 -7.091031 -6.255179 -13.754628 0.140803 7.393567 21.885458 0.268587 -0.241476 -4.943580 0.435500 -4.234800 -11.738100 22.465230 3.621664 -16.926803 -2.016959 -9.159946 25.626547 0.127029 -4.031204 -10.892637 -0.550500 -4.753200 13.205900 8.758393 -2.830574 0.427776 6.979972 -1.393313 1.998183 2.453486 -11.515106 14.974894 -1.154000 -5.565900 9.525200 -96.590450 -2.915031 3.807361 11.332254 -20.230930 -1.232963 1.191414 0.811952 2.794451 -7.125000 0.000000 0.000000 80.672636 1.013847 27.841009 -15.221386 26.170045 -3.034979 0.021567 0.216804 -7.250357 7.125000 0.000000 0.000000 
-1.065656 17.926106 -7.627849 -1.438338 -3.810073 10.699740 -6.972993 -6.276823 -13.787517 0.149211 7.407855 21.920370 0.294989 -0.386510 -4.958201 0.432500 -4.220600 -11.698000 22.595708 3.526962 -16.925637 -2.012664 -9.152121 25.600335 0.161789 -4.242162 -10.827182 -0.424800 -4.183100 11.592300 8.785669 -2.830813 0.336339 6.920806 -1.396558 1.947872 2.550735 -11.423133 15.170339 -1.099400 -5.515300 9.599300 -96.452808 -2.896096 4.490523 11.556818 -20.616733 -1.316785 1.176838 0.821625 2.276221 -7.125000 0.000000 0.000000 80.719898 0.940708 27.507519 -15.010149 25.852165 -2.947624 0.020067 0.222229 -6.947808 7.125000 0.000000 0.000000 
